{
	"asset":{
		"generator":"Khronos glTF Blender I/O v3.6.27",
		"version":"2.0"
	},
	"scene":0,
	"scenes":[
		{
			"name":"Scene",
			"nodes":[
				0
			]
		}
	],
	"nodes":[
		{
			"mesh":0,
			"name":"\u5927\u4f53\u58f3\u540e",
			"rotation":[
				0.09836592525243759,
				-0.008920148946344852,
				0.0397033616900444,
				0.9943179488182068
			],
			"scale":[
				0.022458408027887344,
				0.022458408027887344,
				0.022458406165242195
			],
			"translation":[
				-0.9203090667724609,
				-0.8723150491714478,
				-0.20365898311138153
			]
		}
	],
	"meshes":[
		{
			"name":"\u5927\u4f53\u58f3\u540e",
			"primitives":[
				{
					"attributes":{
						"POSITION":0,
						"NORMAL":1
					},
					"indices":2
				}
			]
		}
	],
	"accessors":[
		{
			"bufferView":0,
			"componentType":5126,
			"count":65442,
			"max":[
				96.12505340576172,
				79.2379379272461,
				-7.584434986114502
			],
			"min":[
				4.300281524658203,
				22.158857345581055,
				-117.21263885498047
			],
			"type":"VEC3"
		},
		{
			"bufferView":1,
			"componentType":5126,
			"count":65442,
			"type":"VEC3"
		},
		{
			"bufferView":2,
			"componentType":5123,
			"count":67368,
			"type":"SCALAR"
		}
	],
	"bufferViews":[
		{
			"buffer":0,
			"byteLength":785304,
			"byteOffset":0,
			"target":34962
		},
		{
			"buffer":0,
			"byteLength":785304,
			"byteOffset":785304,
			"target":34962
		},
		{
			"buffer":0,
			"byteLength":134736,
			"byteOffset":1570608,
			"target":34963
		}
	],
	"buffers":[
		{
			"byteLength":1705344,
			"uri":"data:application/octet-stream;base64,"
		}
	]
}
